<mxfile host="app.diagrams.net" agent="Mozilla/5.0 (Windows NT 10.0; Win64; x64) AppleWebKit/537.36 (KHTML, like Gecko) Chrome/141.0.0.0 Safari/537.36" version="28.2.7">
  <diagram name="Страница — 1" id="iKngpDWeXTwLo5rsjfSl">
    <mxGraphModel dx="1188" dy="626" grid="1" gridSize="10" guides="1" tooltips="1" connect="1" arrows="1" fold="1" page="1" pageScale="1" pageWidth="827" pageHeight="1169" math="0" shadow="0">
      <root>
        <mxCell id="0" />
        <mxCell id="1" parent="0" />
        <mxCell id="_0wyRxIV_uiUg5zMs4nc-1" value="регистр M" style="rounded=0;whiteSpace=wrap;html=1;" vertex="1" parent="1">
          <mxGeometry x="430" y="530" width="90" height="50" as="geometry" />
        </mxCell>
        <mxCell id="_0wyRxIV_uiUg5zMs4nc-2" value="регистр X" style="rounded=0;whiteSpace=wrap;html=1;" vertex="1" parent="1">
          <mxGeometry x="430" y="450" width="90" height="50" as="geometry" />
        </mxCell>
        <mxCell id="_0wyRxIV_uiUg5zMs4nc-7" value="регистр y_bo" style="rounded=0;whiteSpace=wrap;html=1;" vertex="1" parent="1">
          <mxGeometry x="430" y="791" width="90" height="52.5" as="geometry" />
        </mxCell>
        <mxCell id="_0wyRxIV_uiUg5zMs4nc-8" value="регистр Y" style="rounded=0;whiteSpace=wrap;html=1;" vertex="1" parent="1">
          <mxGeometry x="430" y="655" width="90" height="50" as="geometry" />
        </mxCell>
        <mxCell id="_0wyRxIV_uiUg5zMs4nc-13" value="" style="endArrow=classic;html=1;rounded=0;entryX=0;entryY=0.5;entryDx=0;entryDy=0;" edge="1" parent="1" target="_0wyRxIV_uiUg5zMs4nc-2">
          <mxGeometry width="50" height="50" relative="1" as="geometry">
            <mxPoint x="320" y="475" as="sourcePoint" />
            <mxPoint x="350" y="475" as="targetPoint" />
          </mxGeometry>
        </mxCell>
        <mxCell id="_0wyRxIV_uiUg5zMs4nc-14" value="x_bi" style="text;html=1;whiteSpace=wrap;strokeColor=none;fillColor=none;align=center;verticalAlign=middle;rounded=0;" vertex="1" parent="1">
          <mxGeometry x="270" y="450" width="50" height="30" as="geometry" />
        </mxCell>
        <mxCell id="_0wyRxIV_uiUg5zMs4nc-15" value="" style="endArrow=classic;html=1;rounded=0;entryX=0;entryY=0.5;entryDx=0;entryDy=0;" edge="1" parent="1" target="_0wyRxIV_uiUg5zMs4nc-1">
          <mxGeometry width="50" height="50" relative="1" as="geometry">
            <mxPoint x="320" y="555" as="sourcePoint" />
            <mxPoint x="350" y="555" as="targetPoint" />
          </mxGeometry>
        </mxCell>
        <mxCell id="_0wyRxIV_uiUg5zMs4nc-25" value="" style="endArrow=classic;html=1;rounded=0;entryX=0;entryY=0.5;entryDx=0;entryDy=0;" edge="1" parent="1">
          <mxGeometry width="50" height="50" relative="1" as="geometry">
            <mxPoint x="320" y="679.58" as="sourcePoint" />
            <mxPoint x="430" y="679.58" as="targetPoint" />
          </mxGeometry>
        </mxCell>
        <mxCell id="_0wyRxIV_uiUg5zMs4nc-28" value="64" style="text;html=1;whiteSpace=wrap;strokeColor=none;fillColor=none;align=center;verticalAlign=middle;rounded=0;" vertex="1" parent="1">
          <mxGeometry x="280" y="530" width="30" height="30" as="geometry" />
        </mxCell>
        <mxCell id="_0wyRxIV_uiUg5zMs4nc-38" value="" style="endArrow=classic;html=1;rounded=0;entryX=0.5;entryY=0;entryDx=0;entryDy=0;exitX=0.5;exitY=1;exitDx=0;exitDy=0;" edge="1" parent="1" target="_0wyRxIV_uiUg5zMs4nc-7" source="_0wyRxIV_uiUg5zMs4nc-8">
          <mxGeometry width="50" height="50" relative="1" as="geometry">
            <mxPoint x="475" y="760" as="sourcePoint" />
            <mxPoint x="600" y="749" as="targetPoint" />
          </mxGeometry>
        </mxCell>
        <mxCell id="_0wyRxIV_uiUg5zMs4nc-46" value="" style="endArrow=classic;html=1;rounded=0;exitX=0.995;exitY=0.795;exitDx=0;exitDy=0;entryX=0;entryY=0.5;entryDx=0;entryDy=0;exitPerimeter=0;" edge="1" parent="1" source="_0wyRxIV_uiUg5zMs4nc-2" target="_0wyRxIV_uiUg5zMs4nc-141">
          <mxGeometry width="50" height="50" relative="1" as="geometry">
            <mxPoint x="530" y="510" as="sourcePoint" />
            <mxPoint x="630" y="475" as="targetPoint" />
          </mxGeometry>
        </mxCell>
        <mxCell id="_0wyRxIV_uiUg5zMs4nc-52" value="" style="endArrow=classic;html=1;rounded=0;exitX=1.002;exitY=0.699;exitDx=0;exitDy=0;entryX=0;entryY=0.25;entryDx=0;entryDy=0;exitPerimeter=0;" edge="1" parent="1" source="_0wyRxIV_uiUg5zMs4nc-1" target="_0wyRxIV_uiUg5zMs4nc-132">
          <mxGeometry width="50" height="50" relative="1" as="geometry">
            <mxPoint x="560" y="590" as="sourcePoint" />
            <mxPoint x="630" y="544" as="targetPoint" />
          </mxGeometry>
        </mxCell>
        <mxCell id="_0wyRxIV_uiUg5zMs4nc-63" value="" style="endArrow=classic;html=1;rounded=0;fillColor=#6a00ff;strokeColor=#3700CC;entryX=1;entryY=0.5;entryDx=0;entryDy=0;" edge="1" parent="1">
          <mxGeometry width="50" height="50" relative="1" as="geometry">
            <mxPoint x="620" y="530" as="sourcePoint" />
            <mxPoint x="625" y="490" as="targetPoint" />
          </mxGeometry>
        </mxCell>
        <mxCell id="_0wyRxIV_uiUg5zMs4nc-64" value="&lt;font style=&quot;font-size: 8px;&quot;&gt;latch&lt;/font&gt;" style="text;html=1;whiteSpace=wrap;strokeColor=none;fillColor=none;align=center;verticalAlign=middle;rounded=0;fontColor=light-dark(#000000, #efc0ff);rotation=-85;" vertex="1" parent="1">
          <mxGeometry x="600" y="500" width="30" height="20" as="geometry" />
        </mxCell>
        <mxCell id="_0wyRxIV_uiUg5zMs4nc-73" value="" style="endArrow=classic;html=1;rounded=0;entryX=0;entryY=0.5;entryDx=0;entryDy=0;fillColor=#008a00;strokeColor=#005700;" edge="1" parent="1" target="_0wyRxIV_uiUg5zMs4nc-2">
          <mxGeometry width="50" height="50" relative="1" as="geometry">
            <mxPoint x="390" y="500" as="sourcePoint" />
            <mxPoint x="410" y="490" as="targetPoint" />
          </mxGeometry>
        </mxCell>
        <mxCell id="_0wyRxIV_uiUg5zMs4nc-74" value="&lt;font style=&quot;color: light-dark(rgb(0, 0, 0), rgb(134, 208, 135));&quot;&gt;clk/rst&lt;/font&gt;" style="text;html=1;whiteSpace=wrap;strokeColor=none;fillColor=none;align=center;verticalAlign=middle;rounded=0;" vertex="1" parent="1">
          <mxGeometry x="355" y="490" width="60" height="30" as="geometry" />
        </mxCell>
        <mxCell id="_0wyRxIV_uiUg5zMs4nc-75" value="" style="endArrow=classic;html=1;rounded=0;entryX=0;entryY=0.5;entryDx=0;entryDy=0;fillColor=#008a00;strokeColor=#005700;" edge="1" parent="1">
          <mxGeometry width="50" height="50" relative="1" as="geometry">
            <mxPoint x="390" y="580" as="sourcePoint" />
            <mxPoint x="430" y="555" as="targetPoint" />
          </mxGeometry>
        </mxCell>
        <mxCell id="_0wyRxIV_uiUg5zMs4nc-76" value="&lt;font style=&quot;color: light-dark(rgb(0, 0, 0), rgb(134, 208, 135));&quot;&gt;clk/rst&lt;/font&gt;" style="text;html=1;whiteSpace=wrap;strokeColor=none;fillColor=none;align=center;verticalAlign=middle;rounded=0;" vertex="1" parent="1">
          <mxGeometry x="355" y="570" width="60" height="30" as="geometry" />
        </mxCell>
        <mxCell id="_0wyRxIV_uiUg5zMs4nc-77" value="" style="endArrow=classic;html=1;rounded=0;entryX=0;entryY=0.5;entryDx=0;entryDy=0;fillColor=#008a00;strokeColor=#005700;" edge="1" parent="1">
          <mxGeometry width="50" height="50" relative="1" as="geometry">
            <mxPoint x="390" y="706" as="sourcePoint" />
            <mxPoint x="430" y="681" as="targetPoint" />
          </mxGeometry>
        </mxCell>
        <mxCell id="_0wyRxIV_uiUg5zMs4nc-78" value="&lt;font style=&quot;color: light-dark(rgb(0, 0, 0), rgb(134, 208, 135));&quot;&gt;clk/rst&lt;/font&gt;" style="text;html=1;whiteSpace=wrap;strokeColor=none;fillColor=none;align=center;verticalAlign=middle;rounded=0;" vertex="1" parent="1">
          <mxGeometry x="355" y="696" width="60" height="30" as="geometry" />
        </mxCell>
        <mxCell id="_0wyRxIV_uiUg5zMs4nc-84" value="&lt;font style=&quot;font-size: 7px;&quot;&gt;8 bit&lt;/font&gt;" style="text;html=1;whiteSpace=wrap;strokeColor=none;fillColor=none;align=center;verticalAlign=middle;rounded=0;" vertex="1" parent="1">
          <mxGeometry x="780" y="375" width="29" height="30" as="geometry" />
        </mxCell>
        <mxCell id="_0wyRxIV_uiUg5zMs4nc-105" value="comporator (!0)" style="rounded=0;whiteSpace=wrap;html=1;" vertex="1" parent="1">
          <mxGeometry x="430" y="610" width="90" height="20" as="geometry" />
        </mxCell>
        <mxCell id="_0wyRxIV_uiUg5zMs4nc-106" value="" style="endArrow=classic;html=1;rounded=0;exitX=0.5;exitY=1;exitDx=0;exitDy=0;entryX=0.5;entryY=0;entryDx=0;entryDy=0;" edge="1" parent="1" source="_0wyRxIV_uiUg5zMs4nc-1" target="_0wyRxIV_uiUg5zMs4nc-105">
          <mxGeometry width="50" height="50" relative="1" as="geometry">
            <mxPoint x="550" y="640" as="sourcePoint" />
            <mxPoint x="600" y="590" as="targetPoint" />
          </mxGeometry>
        </mxCell>
        <mxCell id="_0wyRxIV_uiUg5zMs4nc-107" value="" style="endArrow=classic;html=1;rounded=0;fontColor=light-dark(#000000,#FF0000);strokeColor=light-dark(#000000,#FF0000);exitX=1;exitY=0.5;exitDx=0;exitDy=0;" edge="1" parent="1" source="_0wyRxIV_uiUg5zMs4nc-105">
          <mxGeometry width="50" height="50" relative="1" as="geometry">
            <mxPoint x="654.9" y="640" as="sourcePoint" />
            <mxPoint x="550" y="620" as="targetPoint" />
          </mxGeometry>
        </mxCell>
        <mxCell id="_0wyRxIV_uiUg5zMs4nc-108" value="cmp1" style="text;html=1;whiteSpace=wrap;strokeColor=none;fillColor=none;align=center;verticalAlign=middle;rounded=0;fontColor=light-dark(#000000,#FF0000);" vertex="1" parent="1">
          <mxGeometry x="520" y="600" width="30" height="19" as="geometry" />
        </mxCell>
        <mxCell id="_0wyRxIV_uiUg5zMs4nc-110" value="Control unit&lt;div&gt;(IDLE, WORK)&lt;/div&gt;" style="rounded=0;whiteSpace=wrap;html=1;" vertex="1" parent="1">
          <mxGeometry x="420" y="320" width="120" height="65" as="geometry" />
        </mxCell>
        <mxCell id="_0wyRxIV_uiUg5zMs4nc-111" value="" style="endArrow=classic;html=1;rounded=0;exitX=1;exitY=0.25;exitDx=0;exitDy=0;fillColor=#d80073;strokeColor=#A50040;" edge="1" parent="1" source="_0wyRxIV_uiUg5zMs4nc-110">
          <mxGeometry width="50" height="50" relative="1" as="geometry">
            <mxPoint x="600" y="430" as="sourcePoint" />
            <mxPoint x="590" y="336" as="targetPoint" />
          </mxGeometry>
        </mxCell>
        <mxCell id="_0wyRxIV_uiUg5zMs4nc-112" value="cs" style="text;html=1;whiteSpace=wrap;strokeColor=none;fillColor=none;align=center;verticalAlign=middle;rounded=0;fontColor=light-dark(#000000,#FEA9DF);" vertex="1" parent="1">
          <mxGeometry x="540" y="320" width="30" height="10" as="geometry" />
        </mxCell>
        <mxCell id="_0wyRxIV_uiUg5zMs4nc-113" value="start_i" style="text;html=1;whiteSpace=wrap;strokeColor=none;fillColor=none;align=center;verticalAlign=middle;rounded=0;fontColor=light-dark(#000000,#0000FF);" vertex="1" parent="1">
          <mxGeometry x="350" y="290" width="50" height="30" as="geometry" />
        </mxCell>
        <mxCell id="_0wyRxIV_uiUg5zMs4nc-114" value="" style="endArrow=classic;html=1;rounded=0;fillColor=#d80073;strokeColor=light-dark(#000000,#0000FF);entryX=0;entryY=0.25;entryDx=0;entryDy=0;" edge="1" parent="1" target="_0wyRxIV_uiUg5zMs4nc-110">
          <mxGeometry width="50" height="50" relative="1" as="geometry">
            <mxPoint x="395" y="310" as="sourcePoint" />
            <mxPoint x="525" y="420" as="targetPoint" />
          </mxGeometry>
        </mxCell>
        <mxCell id="_0wyRxIV_uiUg5zMs4nc-115" value="" style="endArrow=classic;html=1;rounded=0;entryX=0;entryY=0.25;entryDx=0;entryDy=0;" edge="1" parent="1" target="_0wyRxIV_uiUg5zMs4nc-110">
          <mxGeometry width="50" height="50" relative="1" as="geometry">
            <mxPoint x="345" y="336" as="sourcePoint" />
            <mxPoint x="475" y="420" as="targetPoint" />
          </mxGeometry>
        </mxCell>
        <mxCell id="_0wyRxIV_uiUg5zMs4nc-116" value="WORK" style="text;html=1;whiteSpace=wrap;strokeColor=none;fillColor=none;align=center;verticalAlign=middle;rounded=0;" vertex="1" parent="1">
          <mxGeometry x="300" y="310" width="60" height="30" as="geometry" />
        </mxCell>
        <mxCell id="_0wyRxIV_uiUg5zMs4nc-117" value="" style="endArrow=classic;html=1;rounded=0;entryX=0;entryY=0.75;entryDx=0;entryDy=0;" edge="1" parent="1" target="_0wyRxIV_uiUg5zMs4nc-110">
          <mxGeometry width="50" height="50" relative="1" as="geometry">
            <mxPoint x="345" y="369" as="sourcePoint" />
            <mxPoint x="420" y="370" as="targetPoint" />
          </mxGeometry>
        </mxCell>
        <mxCell id="_0wyRxIV_uiUg5zMs4nc-118" value="IDLE" style="text;html=1;whiteSpace=wrap;strokeColor=none;fillColor=none;align=center;verticalAlign=middle;rounded=0;" vertex="1" parent="1">
          <mxGeometry x="310" y="350" width="40" height="20" as="geometry" />
        </mxCell>
        <mxCell id="_0wyRxIV_uiUg5zMs4nc-119" value="" style="endArrow=classic;html=1;rounded=0;fillColor=#d80073;strokeColor=light-dark(#000000,#FF0000);entryX=0;entryY=0.75;entryDx=0;entryDy=0;fontColor=light-dark(#000000,#FF0000);" edge="1" parent="1" target="_0wyRxIV_uiUg5zMs4nc-110">
          <mxGeometry width="50" height="50" relative="1" as="geometry">
            <mxPoint x="395" y="400" as="sourcePoint" />
            <mxPoint x="430" y="346" as="targetPoint" />
          </mxGeometry>
        </mxCell>
        <mxCell id="_0wyRxIV_uiUg5zMs4nc-120" value="!cmp1" style="text;html=1;whiteSpace=wrap;strokeColor=none;fillColor=none;align=center;verticalAlign=middle;rounded=0;fontColor=light-dark(#000000,#FF0000);" vertex="1" parent="1">
          <mxGeometry x="365" y="400" width="30" height="10" as="geometry" />
        </mxCell>
        <mxCell id="_0wyRxIV_uiUg5zMs4nc-121" value="" style="endArrow=classic;html=1;rounded=0;exitX=1;exitY=0.75;exitDx=0;exitDy=0;" edge="1" parent="1" source="_0wyRxIV_uiUg5zMs4nc-110">
          <mxGeometry width="50" height="50" relative="1" as="geometry">
            <mxPoint x="580" y="410" as="sourcePoint" />
            <mxPoint x="630" y="370" as="targetPoint" />
          </mxGeometry>
        </mxCell>
        <mxCell id="_0wyRxIV_uiUg5zMs4nc-122" value="busy_o" style="text;html=1;whiteSpace=wrap;strokeColor=none;fillColor=none;align=center;verticalAlign=middle;rounded=0;" vertex="1" parent="1">
          <mxGeometry x="570" y="345" width="60" height="30" as="geometry" />
        </mxCell>
        <mxCell id="_0wyRxIV_uiUg5zMs4nc-123" value="&lt;font style=&quot;color: light-dark(rgb(0, 0, 0), rgb(134, 208, 135));&quot;&gt;clk/rst&lt;/font&gt;" style="text;html=1;whiteSpace=wrap;strokeColor=none;fillColor=none;align=center;verticalAlign=middle;rounded=0;" vertex="1" parent="1">
          <mxGeometry x="430" y="390" width="60" height="30" as="geometry" />
        </mxCell>
        <mxCell id="_0wyRxIV_uiUg5zMs4nc-124" value="start_i" style="text;html=1;whiteSpace=wrap;strokeColor=none;fillColor=none;align=center;verticalAlign=middle;rounded=0;fontColor=light-dark(#000000,#0000FF);" vertex="1" parent="1">
          <mxGeometry x="360" y="430" width="50" height="30" as="geometry" />
        </mxCell>
        <mxCell id="_0wyRxIV_uiUg5zMs4nc-125" value="" style="endArrow=classic;html=1;rounded=0;fillColor=#d80073;strokeColor=light-dark(#000000,#0000FF);entryX=-0.006;entryY=0.47;entryDx=0;entryDy=0;entryPerimeter=0;" edge="1" parent="1" target="_0wyRxIV_uiUg5zMs4nc-2">
          <mxGeometry width="50" height="50" relative="1" as="geometry">
            <mxPoint x="405" y="450" as="sourcePoint" />
            <mxPoint x="430" y="476" as="targetPoint" />
          </mxGeometry>
        </mxCell>
        <mxCell id="_0wyRxIV_uiUg5zMs4nc-126" value="start_i" style="text;html=1;whiteSpace=wrap;strokeColor=none;fillColor=none;align=center;verticalAlign=middle;rounded=0;fontColor=light-dark(#000000,#0000FF);" vertex="1" parent="1">
          <mxGeometry x="360" y="512" width="50" height="30" as="geometry" />
        </mxCell>
        <mxCell id="_0wyRxIV_uiUg5zMs4nc-127" value="" style="endArrow=classic;html=1;rounded=0;fillColor=#d80073;strokeColor=light-dark(#000000,#0000FF);entryX=-0.002;entryY=0.466;entryDx=0;entryDy=0;entryPerimeter=0;" edge="1" parent="1" target="_0wyRxIV_uiUg5zMs4nc-1">
          <mxGeometry width="50" height="50" relative="1" as="geometry">
            <mxPoint x="405" y="532" as="sourcePoint" />
            <mxPoint x="430" y="558" as="targetPoint" />
          </mxGeometry>
        </mxCell>
        <mxCell id="_0wyRxIV_uiUg5zMs4nc-128" value="start_i" style="text;html=1;whiteSpace=wrap;strokeColor=none;fillColor=none;align=center;verticalAlign=middle;rounded=0;fontColor=light-dark(#000000,#0000FF);" vertex="1" parent="1">
          <mxGeometry x="360" y="639" width="50" height="30" as="geometry" />
        </mxCell>
        <mxCell id="_0wyRxIV_uiUg5zMs4nc-129" value="" style="endArrow=classic;html=1;rounded=0;fillColor=#d80073;strokeColor=light-dark(#000000,#0000FF);entryX=-0.004;entryY=0.452;entryDx=0;entryDy=0;entryPerimeter=0;" edge="1" parent="1" target="_0wyRxIV_uiUg5zMs4nc-8">
          <mxGeometry width="50" height="50" relative="1" as="geometry">
            <mxPoint x="405" y="659" as="sourcePoint" />
            <mxPoint x="430" y="685" as="targetPoint" />
          </mxGeometry>
        </mxCell>
        <mxCell id="_0wyRxIV_uiUg5zMs4nc-130" value="" style="endArrow=classic;html=1;rounded=0;fontColor=light-dark(#000000,#FF0000);strokeColor=light-dark(#000000,#FF0000);entryX=0.5;entryY=0;entryDx=0;entryDy=0;" edge="1" parent="1" target="_0wyRxIV_uiUg5zMs4nc-7">
          <mxGeometry width="50" height="50" relative="1" as="geometry">
            <mxPoint x="450" y="760" as="sourcePoint" />
            <mxPoint x="415.1" y="740" as="targetPoint" />
          </mxGeometry>
        </mxCell>
        <mxCell id="_0wyRxIV_uiUg5zMs4nc-131" value="cmp1" style="text;html=1;whiteSpace=wrap;strokeColor=none;fillColor=none;align=center;verticalAlign=middle;rounded=0;fontColor=light-dark(#000000,#FF0000);" vertex="1" parent="1">
          <mxGeometry x="420" y="760" width="30" height="19" as="geometry" />
        </mxCell>
        <mxCell id="_0wyRxIV_uiUg5zMs4nc-132" value="|" style="rounded=0;whiteSpace=wrap;html=1;" vertex="1" parent="1">
          <mxGeometry x="660" y="560" width="20" height="20" as="geometry" />
        </mxCell>
        <mxCell id="_0wyRxIV_uiUg5zMs4nc-134" value="cmp1" style="text;html=1;whiteSpace=wrap;strokeColor=none;fillColor=none;align=center;verticalAlign=middle;rounded=0;fontColor=light-dark(#000000,#FF0000);" vertex="1" parent="1">
          <mxGeometry x="585" y="430" width="30" height="19" as="geometry" />
        </mxCell>
        <mxCell id="_0wyRxIV_uiUg5zMs4nc-85" value="регистр B" style="rounded=0;whiteSpace=wrap;html=1;" vertex="1" parent="1">
          <mxGeometry x="635" y="512" width="70" height="29" as="geometry" />
        </mxCell>
        <mxCell id="_0wyRxIV_uiUg5zMs4nc-138" value="&amp;gt;&amp;gt;1" style="rounded=0;whiteSpace=wrap;html=1;" vertex="1" parent="1">
          <mxGeometry x="630" y="665" width="30" height="20" as="geometry" />
        </mxCell>
        <mxCell id="_0wyRxIV_uiUg5zMs4nc-139" value="" style="endArrow=classic;html=1;rounded=0;exitX=1;exitY=0.5;exitDx=0;exitDy=0;entryX=0;entryY=0.75;entryDx=0;entryDy=0;" edge="1" parent="1" source="_0wyRxIV_uiUg5zMs4nc-8" target="_0wyRxIV_uiUg5zMs4nc-138">
          <mxGeometry width="50" height="50" relative="1" as="geometry">
            <mxPoint x="570" y="570" as="sourcePoint" />
            <mxPoint x="620" y="520" as="targetPoint" />
          </mxGeometry>
        </mxCell>
        <mxCell id="_0wyRxIV_uiUg5zMs4nc-141" value="comporator (&amp;gt;=)" style="rounded=0;whiteSpace=wrap;html=1;" vertex="1" parent="1">
          <mxGeometry x="625" y="480" width="90" height="20" as="geometry" />
        </mxCell>
        <mxCell id="_0wyRxIV_uiUg5zMs4nc-142" value="" style="endArrow=classic;html=1;rounded=0;exitX=0.5;exitY=0;exitDx=0;exitDy=0;entryX=0.5;entryY=1;entryDx=0;entryDy=0;" edge="1" parent="1" source="_0wyRxIV_uiUg5zMs4nc-85" target="_0wyRxIV_uiUg5zMs4nc-141">
          <mxGeometry width="50" height="50" relative="1" as="geometry">
            <mxPoint x="730" y="550" as="sourcePoint" />
            <mxPoint x="780" y="500" as="targetPoint" />
          </mxGeometry>
        </mxCell>
        <mxCell id="_0wyRxIV_uiUg5zMs4nc-145" value="" style="endArrow=classic;html=1;rounded=0;fontColor=light-dark(#000000,#FF0000);strokeColor=light-dark(#000000,#FF0000);exitX=1.001;exitY=0.485;exitDx=0;exitDy=0;exitPerimeter=0;" edge="1" parent="1" source="_0wyRxIV_uiUg5zMs4nc-141">
          <mxGeometry width="50" height="50" relative="1" as="geometry">
            <mxPoint x="715" y="489.66999999999996" as="sourcePoint" />
            <mxPoint x="745" y="489.66999999999996" as="targetPoint" />
          </mxGeometry>
        </mxCell>
        <mxCell id="_0wyRxIV_uiUg5zMs4nc-146" value="&lt;font style=&quot;font-size: 10px;&quot;&gt;cmp2&lt;/font&gt;" style="text;html=1;whiteSpace=wrap;strokeColor=none;fillColor=none;align=center;verticalAlign=middle;rounded=0;fontColor=light-dark(#000000,#FF0000);" vertex="1" parent="1">
          <mxGeometry x="715" y="469.66999999999996" width="30" height="19" as="geometry" />
        </mxCell>
        <mxCell id="_0wyRxIV_uiUg5zMs4nc-147" value="" style="endArrow=classic;html=1;rounded=0;exitX=0.998;exitY=0.303;exitDx=0;exitDy=0;entryX=0;entryY=0.5;entryDx=0;entryDy=0;exitPerimeter=0;" edge="1" parent="1" source="_0wyRxIV_uiUg5zMs4nc-2" target="_0wyRxIV_uiUg5zMs4nc-151">
          <mxGeometry width="50" height="50" relative="1" as="geometry">
            <mxPoint x="540" y="480" as="sourcePoint" />
            <mxPoint x="820" y="463" as="targetPoint" />
          </mxGeometry>
        </mxCell>
        <mxCell id="_0wyRxIV_uiUg5zMs4nc-151" value="-" style="rounded=0;whiteSpace=wrap;html=1;" vertex="1" parent="1">
          <mxGeometry x="820" y="455" width="20" height="20" as="geometry" />
        </mxCell>
        <mxCell id="_0wyRxIV_uiUg5zMs4nc-153" value="" style="endArrow=classic;html=1;rounded=0;exitX=1;exitY=0.5;exitDx=0;exitDy=0;entryX=0.5;entryY=1;entryDx=0;entryDy=0;" edge="1" parent="1" source="_0wyRxIV_uiUg5zMs4nc-85" target="_0wyRxIV_uiUg5zMs4nc-151">
          <mxGeometry width="50" height="50" relative="1" as="geometry">
            <mxPoint x="750" y="560" as="sourcePoint" />
            <mxPoint x="800" y="510" as="targetPoint" />
            <Array as="points">
              <mxPoint x="830" y="527" />
            </Array>
          </mxGeometry>
        </mxCell>
        <mxCell id="_0wyRxIV_uiUg5zMs4nc-154" value="" style="endArrow=classic;html=1;rounded=0;entryX=0.778;entryY=-0.003;entryDx=0;entryDy=0;entryPerimeter=0;exitX=0.5;exitY=0;exitDx=0;exitDy=0;" edge="1" parent="1" source="_0wyRxIV_uiUg5zMs4nc-171" target="_0wyRxIV_uiUg5zMs4nc-2">
          <mxGeometry width="50" height="50" relative="1" as="geometry">
            <mxPoint x="730" y="420" as="sourcePoint" />
            <mxPoint x="960" y="410" as="targetPoint" />
            <Array as="points">
              <mxPoint x="500" y="420" />
            </Array>
          </mxGeometry>
        </mxCell>
        <mxCell id="_0wyRxIV_uiUg5zMs4nc-158" value="" style="endArrow=classic;html=1;rounded=0;entryX=0;entryY=0.5;entryDx=0;entryDy=0;exitX=1;exitY=0.75;exitDx=0;exitDy=0;" edge="1" parent="1" source="_0wyRxIV_uiUg5zMs4nc-138" target="_0wyRxIV_uiUg5zMs4nc-160">
          <mxGeometry width="50" height="50" relative="1" as="geometry">
            <mxPoint x="680" y="680" as="sourcePoint" />
            <mxPoint x="830" y="630" as="targetPoint" />
            <Array as="points">
              <mxPoint x="680" y="680" />
              <mxPoint x="780" y="680" />
              <mxPoint x="780" y="590" />
            </Array>
          </mxGeometry>
        </mxCell>
        <mxCell id="_0wyRxIV_uiUg5zMs4nc-159" value="" style="endArrow=classic;html=1;rounded=0;exitX=1;exitY=0.5;exitDx=0;exitDy=0;entryX=0.5;entryY=0;entryDx=0;entryDy=0;" edge="1" parent="1" source="_0wyRxIV_uiUg5zMs4nc-1" target="_0wyRxIV_uiUg5zMs4nc-160">
          <mxGeometry width="50" height="50" relative="1" as="geometry">
            <mxPoint x="710" y="600" as="sourcePoint" />
            <mxPoint x="830" y="555" as="targetPoint" />
            <Array as="points">
              <mxPoint x="830" y="555" />
            </Array>
          </mxGeometry>
        </mxCell>
        <mxCell id="_0wyRxIV_uiUg5zMs4nc-137" value="" style="endArrow=classic;html=1;rounded=0;exitX=0.5;exitY=0;exitDx=0;exitDy=0;entryX=0.5;entryY=1;entryDx=0;entryDy=0;jumpStyle=line;" edge="1" parent="1" source="_0wyRxIV_uiUg5zMs4nc-132" target="_0wyRxIV_uiUg5zMs4nc-85">
          <mxGeometry width="50" height="50" relative="1" as="geometry">
            <mxPoint x="710" y="600" as="sourcePoint" />
            <mxPoint x="670" y="550" as="targetPoint" />
          </mxGeometry>
        </mxCell>
        <mxCell id="_0wyRxIV_uiUg5zMs4nc-160" value="|" style="rounded=0;whiteSpace=wrap;html=1;" vertex="1" parent="1">
          <mxGeometry x="820" y="580" width="20" height="20" as="geometry" />
        </mxCell>
        <mxCell id="_0wyRxIV_uiUg5zMs4nc-162" value="&amp;gt;&amp;gt;2" style="rounded=0;whiteSpace=wrap;html=1;" vertex="1" parent="1">
          <mxGeometry x="715" y="585" width="30" height="20" as="geometry" />
        </mxCell>
        <mxCell id="_0wyRxIV_uiUg5zMs4nc-163" value="" style="endArrow=classic;html=1;rounded=0;entryX=0.5;entryY=0;entryDx=0;entryDy=0;" edge="1" parent="1" target="_0wyRxIV_uiUg5zMs4nc-162">
          <mxGeometry width="50" height="50" relative="1" as="geometry">
            <mxPoint x="730" y="555" as="sourcePoint" />
            <mxPoint x="730" y="570" as="targetPoint" />
          </mxGeometry>
        </mxCell>
        <mxCell id="_0wyRxIV_uiUg5zMs4nc-164" value="" style="endArrow=classic;html=1;rounded=0;exitX=0;exitY=0.5;exitDx=0;exitDy=0;entryX=1.001;entryY=0.878;entryDx=0;entryDy=0;entryPerimeter=0;" edge="1" parent="1" source="_0wyRxIV_uiUg5zMs4nc-162" target="_0wyRxIV_uiUg5zMs4nc-1">
          <mxGeometry width="50" height="50" relative="1" as="geometry">
            <mxPoint x="660" y="650" as="sourcePoint" />
            <mxPoint x="710" y="600" as="targetPoint" />
            <Array as="points">
              <mxPoint x="570" y="595" />
              <mxPoint x="570" y="574" />
            </Array>
          </mxGeometry>
        </mxCell>
        <mxCell id="_0wyRxIV_uiUg5zMs4nc-135" value="" style="endArrow=classic;html=1;rounded=0;exitX=1;exitY=0.25;exitDx=0;exitDy=0;entryX=0;entryY=0.75;entryDx=0;entryDy=0;jumpStyle=line;" edge="1" parent="1" source="_0wyRxIV_uiUg5zMs4nc-8" target="_0wyRxIV_uiUg5zMs4nc-132">
          <mxGeometry width="50" height="50" relative="1" as="geometry">
            <mxPoint x="550" y="630" as="sourcePoint" />
            <mxPoint x="640" y="590" as="targetPoint" />
            <Array as="points">
              <mxPoint x="580" y="668" />
              <mxPoint x="580" y="575" />
            </Array>
          </mxGeometry>
        </mxCell>
        <mxCell id="_0wyRxIV_uiUg5zMs4nc-133" value="" style="endArrow=none;dashed=1;html=1;dashPattern=1 3;strokeWidth=2;rounded=0;strokeColor=light-dark(#000000,#FF0000);" edge="1" parent="1">
          <mxGeometry width="50" height="50" relative="1" as="geometry">
            <mxPoint x="600" y="710" as="sourcePoint" />
            <mxPoint x="600" y="450" as="targetPoint" />
          </mxGeometry>
        </mxCell>
        <mxCell id="_0wyRxIV_uiUg5zMs4nc-165" value="" style="endArrow=classic;html=1;rounded=0;fillColor=#6a00ff;strokeColor=#3700CC;" edge="1" parent="1">
          <mxGeometry width="50" height="50" relative="1" as="geometry">
            <mxPoint x="760" y="570" as="sourcePoint" />
            <mxPoint x="730" y="585" as="targetPoint" />
          </mxGeometry>
        </mxCell>
        <mxCell id="_0wyRxIV_uiUg5zMs4nc-166" value="&lt;font style=&quot;font-size: 8px;&quot;&gt;latch&lt;/font&gt;" style="text;html=1;whiteSpace=wrap;strokeColor=none;fillColor=none;align=center;verticalAlign=middle;rounded=0;fontColor=light-dark(#000000, #efc0ff);rotation=0;" vertex="1" parent="1">
          <mxGeometry x="745" y="570" width="25" height="20" as="geometry" />
        </mxCell>
        <mxCell id="_0wyRxIV_uiUg5zMs4nc-169" value="" style="endArrow=classic;html=1;rounded=0;fillColor=#6a00ff;strokeColor=#3700CC;entryX=0;entryY=0;entryDx=0;entryDy=0;" edge="1" parent="1" target="_0wyRxIV_uiUg5zMs4nc-138">
          <mxGeometry width="50" height="50" relative="1" as="geometry">
            <mxPoint x="620" y="640" as="sourcePoint" />
            <mxPoint x="630" y="680" as="targetPoint" />
          </mxGeometry>
        </mxCell>
        <mxCell id="_0wyRxIV_uiUg5zMs4nc-170" value="&lt;font style=&quot;font-size: 8px;&quot;&gt;latch&lt;/font&gt;" style="text;html=1;whiteSpace=wrap;strokeColor=none;fillColor=none;align=center;verticalAlign=middle;rounded=0;fontColor=light-dark(#000000, #efc0ff);rotation=0;" vertex="1" parent="1">
          <mxGeometry x="625" y="635" width="25" height="20" as="geometry" />
        </mxCell>
        <mxCell id="_0wyRxIV_uiUg5zMs4nc-171" value="mux" style="shape=trapezoid;perimeter=trapezoidPerimeter;whiteSpace=wrap;html=1;fixedSize=1;size=10;rotation=-90;" vertex="1" parent="1">
          <mxGeometry x="720" y="410" width="50" height="20" as="geometry" />
        </mxCell>
        <mxCell id="_0wyRxIV_uiUg5zMs4nc-172" value="" style="endArrow=classic;html=1;rounded=0;entryX=0.288;entryY=1.022;entryDx=0;entryDy=0;entryPerimeter=0;" edge="1" parent="1" target="_0wyRxIV_uiUg5zMs4nc-171">
          <mxGeometry width="50" height="50" relative="1" as="geometry">
            <mxPoint x="790" y="465" as="sourcePoint" />
            <mxPoint x="820" y="420" as="targetPoint" />
            <Array as="points">
              <mxPoint x="790" y="431" />
            </Array>
          </mxGeometry>
        </mxCell>
        <mxCell id="_0wyRxIV_uiUg5zMs4nc-173" value="" style="endArrow=classic;html=1;rounded=0;exitX=0.5;exitY=0;exitDx=0;exitDy=0;entryX=0.7;entryY=1.007;entryDx=0;entryDy=0;entryPerimeter=0;" edge="1" parent="1" source="_0wyRxIV_uiUg5zMs4nc-151" target="_0wyRxIV_uiUg5zMs4nc-171">
          <mxGeometry width="50" height="50" relative="1" as="geometry">
            <mxPoint x="820" y="460" as="sourcePoint" />
            <mxPoint x="870" y="410" as="targetPoint" />
            <Array as="points">
              <mxPoint x="830" y="410" />
            </Array>
          </mxGeometry>
        </mxCell>
        <mxCell id="_0wyRxIV_uiUg5zMs4nc-174" value="&lt;font style=&quot;font-size: 10px;&quot;&gt;cmp2&lt;/font&gt;" style="text;html=1;whiteSpace=wrap;strokeColor=none;fillColor=none;align=center;verticalAlign=middle;rounded=0;fontColor=light-dark(#000000,#FF0000);" vertex="1" parent="1">
          <mxGeometry x="700" y="431" width="30" height="19" as="geometry" />
        </mxCell>
        <mxCell id="_0wyRxIV_uiUg5zMs4nc-175" value="" style="endArrow=classic;html=1;rounded=0;fontColor=light-dark(#000000,#FF0000);strokeColor=light-dark(#000000,#FF0000);entryX=0;entryY=0.5;entryDx=0;entryDy=0;" edge="1" parent="1" target="_0wyRxIV_uiUg5zMs4nc-171">
          <mxGeometry width="50" height="50" relative="1" as="geometry">
            <mxPoint x="720" y="450" as="sourcePoint" />
            <mxPoint x="760" y="490" as="targetPoint" />
          </mxGeometry>
        </mxCell>
        <mxCell id="_0wyRxIV_uiUg5zMs4nc-176" value="mux" style="shape=trapezoid;perimeter=trapezoidPerimeter;whiteSpace=wrap;html=1;fixedSize=1;size=10;rotation=-90;" vertex="1" parent="1">
          <mxGeometry x="720" y="720" width="50" height="20" as="geometry" />
        </mxCell>
        <mxCell id="_0wyRxIV_uiUg5zMs4nc-177" value="" style="endArrow=classic;html=1;rounded=0;entryX=0.75;entryY=1;entryDx=0;entryDy=0;" edge="1" parent="1" target="_0wyRxIV_uiUg5zMs4nc-176">
          <mxGeometry width="50" height="50" relative="1" as="geometry">
            <mxPoint x="680" y="680" as="sourcePoint" />
            <mxPoint x="780" y="650" as="targetPoint" />
            <Array as="points">
              <mxPoint x="780" y="680" />
              <mxPoint x="780" y="718" />
            </Array>
          </mxGeometry>
        </mxCell>
        <mxCell id="_0wyRxIV_uiUg5zMs4nc-178" value="" style="endArrow=classic;html=1;rounded=0;exitX=0.5;exitY=1;exitDx=0;exitDy=0;entryX=0.25;entryY=1;entryDx=0;entryDy=0;" edge="1" parent="1" source="_0wyRxIV_uiUg5zMs4nc-160" target="_0wyRxIV_uiUg5zMs4nc-176">
          <mxGeometry width="50" height="50" relative="1" as="geometry">
            <mxPoint x="920" y="590" as="sourcePoint" />
            <mxPoint x="960" y="620" as="targetPoint" />
            <Array as="points">
              <mxPoint x="830" y="743" />
            </Array>
          </mxGeometry>
        </mxCell>
        <mxCell id="_0wyRxIV_uiUg5zMs4nc-179" value="" style="endArrow=classic;html=1;rounded=0;entryX=1.004;entryY=0.7;entryDx=0;entryDy=0;exitX=0.5;exitY=0;exitDx=0;exitDy=0;entryPerimeter=0;" edge="1" parent="1" source="_0wyRxIV_uiUg5zMs4nc-176" target="_0wyRxIV_uiUg5zMs4nc-8">
          <mxGeometry width="50" height="50" relative="1" as="geometry">
            <mxPoint x="570" y="780" as="sourcePoint" />
            <mxPoint x="620" y="730" as="targetPoint" />
            <Array as="points">
              <mxPoint x="580" y="730" />
              <mxPoint x="580" y="690" />
            </Array>
          </mxGeometry>
        </mxCell>
        <mxCell id="_0wyRxIV_uiUg5zMs4nc-180" value="&lt;font style=&quot;font-size: 10px;&quot;&gt;cmp2&lt;/font&gt;" style="text;html=1;whiteSpace=wrap;strokeColor=none;fillColor=none;align=center;verticalAlign=middle;rounded=0;fontColor=light-dark(#000000,#FF0000);" vertex="1" parent="1">
          <mxGeometry x="705" y="750" width="30" height="19" as="geometry" />
        </mxCell>
        <mxCell id="_0wyRxIV_uiUg5zMs4nc-181" value="" style="endArrow=classic;html=1;rounded=0;fontColor=light-dark(#000000,#FF0000);strokeColor=light-dark(#000000,#FF0000);entryX=0;entryY=0.5;entryDx=0;entryDy=0;" edge="1" parent="1" target="_0wyRxIV_uiUg5zMs4nc-176">
          <mxGeometry width="50" height="50" relative="1" as="geometry">
            <mxPoint x="730" y="770" as="sourcePoint" />
            <mxPoint x="737.5" y="759" as="targetPoint" />
          </mxGeometry>
        </mxCell>
        <mxCell id="_0wyRxIV_uiUg5zMs4nc-182" value="0" style="text;html=1;whiteSpace=wrap;strokeColor=none;fillColor=none;align=center;verticalAlign=middle;rounded=0;" vertex="1" parent="1">
          <mxGeometry x="280" y="655" width="30" height="30" as="geometry" />
        </mxCell>
        <mxCell id="_0wyRxIV_uiUg5zMs4nc-183" value="&lt;font style=&quot;font-size: 8px;&quot;&gt;latch&lt;/font&gt;" style="text;html=1;whiteSpace=wrap;strokeColor=none;fillColor=none;align=center;verticalAlign=middle;rounded=0;fontColor=light-dark(#000000, #efc0ff);rotation=0;" vertex="1" parent="1">
          <mxGeometry x="784" y="570" width="25" height="20" as="geometry" />
        </mxCell>
        <mxCell id="_0wyRxIV_uiUg5zMs4nc-185" value="" style="endArrow=classic;html=1;rounded=0;fillColor=#6a00ff;strokeColor=#3700CC;entryX=0;entryY=0;entryDx=0;entryDy=0;exitX=0.25;exitY=0;exitDx=0;exitDy=0;" edge="1" parent="1" source="_0wyRxIV_uiUg5zMs4nc-183" target="_0wyRxIV_uiUg5zMs4nc-160">
          <mxGeometry width="50" height="50" relative="1" as="geometry">
            <mxPoint x="760" y="580" as="sourcePoint" />
            <mxPoint x="730" y="595" as="targetPoint" />
          </mxGeometry>
        </mxCell>
      </root>
    </mxGraphModel>
  </diagram>
</mxfile>
